<mxfile host="Electron" modified="2024-05-02T19:50:03.371Z" agent="Mozilla/5.0 (X11; Linux x86_64) AppleWebKit/537.36 (KHTML, like Gecko) draw.io/24.2.5 Chrome/120.0.6099.109 Electron/28.1.0 Safari/537.36" etag="Hu-oOsKNOXYbbit38JyB" version="24.2.5" type="device">
  <diagram name="Page-1" id="XTCA5G6cbBC70T64MSRc">
    <mxGraphModel dx="1180" dy="1985" grid="1" gridSize="10" guides="1" tooltips="1" connect="1" arrows="1" fold="1" page="1" pageScale="1" pageWidth="850" pageHeight="1100" math="0" shadow="0">
      <root>
        <mxCell id="0" />
        <mxCell id="1" parent="0" />
        <mxCell id="g3ic62DsX7ZCbNPFw6_O-63" value="" style="image;aspect=fixed;perimeter=ellipsePerimeter;html=1;align=center;shadow=0;dashed=0;spacingTop=3;image=img/lib/active_directory/internet_cloud.svg;fontSize=14;" vertex="1" parent="1">
          <mxGeometry x="508.63000000000005" y="390" width="158.73" height="100" as="geometry" />
        </mxCell>
        <mxCell id="g3ic62DsX7ZCbNPFw6_O-27" value="" style="rounded=1;whiteSpace=wrap;html=1;fontSize=14;" vertex="1" parent="1">
          <mxGeometry x="648" y="480" width="358" height="390" as="geometry" />
        </mxCell>
        <mxCell id="g3ic62DsX7ZCbNPFw6_O-28" value="HUB2" style="rounded=0;whiteSpace=wrap;html=1;fontSize=14;" vertex="1" parent="1">
          <mxGeometry x="835" y="480" width="120" height="30" as="geometry" />
        </mxCell>
        <mxCell id="g3ic62DsX7ZCbNPFw6_O-25" value="" style="rounded=1;whiteSpace=wrap;html=1;fontSize=14;" vertex="1" parent="1">
          <mxGeometry x="144" y="480" width="358" height="390" as="geometry" />
        </mxCell>
        <mxCell id="0JstrHkOvT4zA7hhjL8A-35" value="" style="rounded=1;whiteSpace=wrap;html=1;fontSize=14;" parent="1" vertex="1">
          <mxGeometry x="400" y="-20" width="358" height="390" as="geometry" />
        </mxCell>
        <mxCell id="0JstrHkOvT4zA7hhjL8A-34" value="" style="rounded=1;whiteSpace=wrap;html=1;fontSize=14;" parent="1" vertex="1">
          <mxGeometry x="20" y="-20" width="358" height="390" as="geometry" />
        </mxCell>
        <mxCell id="0JstrHkOvT4zA7hhjL8A-3" value="SD-WAN&lt;div style=&quot;font-size: 14px;&quot;&gt;VCE1&lt;/div&gt;" style="rounded=0;whiteSpace=wrap;html=1;fontSize=14;" parent="1" vertex="1">
          <mxGeometry x="240" y="160" width="60" height="30" as="geometry" />
        </mxCell>
        <mxCell id="0JstrHkOvT4zA7hhjL8A-4" value="SD-WAN&lt;div style=&quot;font-size: 14px;&quot;&gt;VCE2&lt;/div&gt;" style="rounded=0;whiteSpace=wrap;html=1;fontSize=14;" parent="1" vertex="1">
          <mxGeometry x="488" y="140" width="60" height="30" as="geometry" />
        </mxCell>
        <mxCell id="0JstrHkOvT4zA7hhjL8A-18" value="" style="image;points=[];aspect=fixed;html=1;align=center;shadow=0;dashed=0;image=img/lib/allied_telesis/computer_and_terminals/Laptop.svg;fontSize=14;" parent="1" vertex="1">
          <mxGeometry x="658" y="37.400000000000006" width="42" height="42.599999999999994" as="geometry" />
        </mxCell>
        <mxCell id="0JstrHkOvT4zA7hhjL8A-19" value="" style="image;points=[];aspect=fixed;html=1;align=center;shadow=0;dashed=0;image=img/lib/allied_telesis/computer_and_terminals/Laptop.svg;fontSize=14;" parent="1" vertex="1">
          <mxGeometry x="667.36" y="107.4" width="42" height="42.599999999999994" as="geometry" />
        </mxCell>
        <mxCell id="0JstrHkOvT4zA7hhjL8A-20" value="" style="image;points=[];aspect=fixed;html=1;align=center;shadow=0;dashed=0;image=img/lib/allied_telesis/computer_and_terminals/Laptop.svg;fontSize=14;" parent="1" vertex="1">
          <mxGeometry x="78" y="90" width="42" height="42.599999999999994" as="geometry" />
        </mxCell>
        <mxCell id="0JstrHkOvT4zA7hhjL8A-21" value="" style="image;points=[];aspect=fixed;html=1;align=center;shadow=0;dashed=0;image=img/lib/allied_telesis/computer_and_terminals/Laptop.svg;fontSize=14;" parent="1" vertex="1">
          <mxGeometry x="120" y="7.400000000000006" width="42" height="42.599999999999994" as="geometry" />
        </mxCell>
        <mxCell id="0JstrHkOvT4zA7hhjL8A-22" value="" style="endArrow=none;dashed=1;html=1;dashPattern=1 3;strokeWidth=2;rounded=0;exitX=0.985;exitY=0.015;exitDx=0;exitDy=0;exitPerimeter=0;fontSize=14;" parent="1" source="0JstrHkOvT4zA7hhjL8A-52" target="0JstrHkOvT4zA7hhjL8A-18" edge="1">
          <mxGeometry width="50" height="50" relative="1" as="geometry">
            <mxPoint x="508" y="90" as="sourcePoint" />
            <mxPoint x="658" y="70" as="targetPoint" />
          </mxGeometry>
        </mxCell>
        <mxCell id="0JstrHkOvT4zA7hhjL8A-24" value="VLAN 22&lt;div style=&quot;font-size: 14px;&quot;&gt;192.168.22.10/24&lt;/div&gt;" style="edgeLabel;html=1;align=center;verticalAlign=middle;resizable=0;points=[];fontSize=14;" parent="0JstrHkOvT4zA7hhjL8A-22" vertex="1" connectable="0">
          <mxGeometry x="-0.0074" y="-3" relative="1" as="geometry">
            <mxPoint as="offset" />
          </mxGeometry>
        </mxCell>
        <mxCell id="0JstrHkOvT4zA7hhjL8A-23" value="" style="endArrow=none;dashed=1;html=1;dashPattern=1 3;strokeWidth=2;rounded=0;exitX=0.985;exitY=0.985;exitDx=0;exitDy=0;exitPerimeter=0;fontSize=14;" parent="1" source="0JstrHkOvT4zA7hhjL8A-52" target="0JstrHkOvT4zA7hhjL8A-19" edge="1">
          <mxGeometry width="50" height="50" relative="1" as="geometry">
            <mxPoint x="508" y="100" as="sourcePoint" />
            <mxPoint x="658" y="153" as="targetPoint" />
          </mxGeometry>
        </mxCell>
        <mxCell id="0JstrHkOvT4zA7hhjL8A-25" value="&lt;font style=&quot;font-size: 14px;&quot;&gt;VLAN 12&lt;/font&gt;&lt;div style=&quot;font-size: 14px;&quot;&gt;&lt;font style=&quot;font-size: 14px;&quot;&gt;192.168.12.12/24&lt;/font&gt;&lt;/div&gt;" style="edgeLabel;html=1;align=center;verticalAlign=middle;resizable=0;points=[];fontSize=14;" parent="0JstrHkOvT4zA7hhjL8A-23" vertex="1" connectable="0">
          <mxGeometry x="0.1165" y="-1" relative="1" as="geometry">
            <mxPoint as="offset" />
          </mxGeometry>
        </mxCell>
        <mxCell id="0JstrHkOvT4zA7hhjL8A-27" value="" style="endArrow=none;dashed=1;html=1;dashPattern=1 3;strokeWidth=2;rounded=0;entryX=0.015;entryY=0.015;entryDx=0;entryDy=0;entryPerimeter=0;fontSize=14;" parent="1" source="0JstrHkOvT4zA7hhjL8A-21" target="0JstrHkOvT4zA7hhjL8A-50" edge="1">
          <mxGeometry width="50" height="50" relative="1" as="geometry">
            <mxPoint x="182" y="34.4" as="sourcePoint" />
            <mxPoint x="280" y="65" as="targetPoint" />
          </mxGeometry>
        </mxCell>
        <mxCell id="0JstrHkOvT4zA7hhjL8A-28" value="VLAN 21&lt;div style=&quot;font-size: 14px;&quot;&gt;192.168.21.23/24&lt;/div&gt;" style="edgeLabel;html=1;align=center;verticalAlign=middle;resizable=0;points=[];fontSize=14;" parent="0JstrHkOvT4zA7hhjL8A-27" vertex="1" connectable="0">
          <mxGeometry x="-0.0074" y="-3" relative="1" as="geometry">
            <mxPoint as="offset" />
          </mxGeometry>
        </mxCell>
        <mxCell id="0JstrHkOvT4zA7hhjL8A-31" value="" style="endArrow=none;dashed=1;html=1;dashPattern=1 3;strokeWidth=2;rounded=0;exitX=0.015;exitY=0.985;exitDx=0;exitDy=0;exitPerimeter=0;fontSize=14;" parent="1" source="0JstrHkOvT4zA7hhjL8A-50" target="0JstrHkOvT4zA7hhjL8A-20" edge="1">
          <mxGeometry width="50" height="50" relative="1" as="geometry">
            <mxPoint x="280" y="65" as="sourcePoint" />
            <mxPoint x="400" y="129.3" as="targetPoint" />
          </mxGeometry>
        </mxCell>
        <mxCell id="0JstrHkOvT4zA7hhjL8A-32" value="VLAN 11&lt;div style=&quot;font-size: 14px;&quot;&gt;192.168.11.25/24&lt;/div&gt;" style="edgeLabel;html=1;align=center;verticalAlign=middle;resizable=0;points=[];fontSize=14;" parent="0JstrHkOvT4zA7hhjL8A-31" vertex="1" connectable="0">
          <mxGeometry x="0.1165" y="-1" relative="1" as="geometry">
            <mxPoint as="offset" />
          </mxGeometry>
        </mxCell>
        <mxCell id="0JstrHkOvT4zA7hhjL8A-36" value="Site 2" style="rounded=0;whiteSpace=wrap;html=1;fontSize=14;" parent="1" vertex="1">
          <mxGeometry x="528" y="-20" width="120" height="30" as="geometry" />
        </mxCell>
        <mxCell id="0JstrHkOvT4zA7hhjL8A-37" value="Site 1" style="rounded=0;whiteSpace=wrap;html=1;fontSize=14;" parent="1" vertex="1">
          <mxGeometry x="180" y="-20" width="120" height="30" as="geometry" />
        </mxCell>
        <mxCell id="0JstrHkOvT4zA7hhjL8A-39" value="" style="endArrow=none;html=1;rounded=0;entryX=0.5;entryY=1;entryDx=0;entryDy=0;exitX=0.5;exitY=0;exitDx=0;exitDy=0;entryPerimeter=0;fontSize=14;" parent="1" source="0JstrHkOvT4zA7hhjL8A-3" target="0JstrHkOvT4zA7hhjL8A-50" edge="1">
          <mxGeometry width="50" height="50" relative="1" as="geometry">
            <mxPoint x="430" y="300" as="sourcePoint" />
            <mxPoint x="310" y="180" as="targetPoint" />
          </mxGeometry>
        </mxCell>
        <mxCell id="0JstrHkOvT4zA7hhjL8A-40" value="" style="endArrow=none;html=1;rounded=0;entryX=0.5;entryY=1;entryDx=0;entryDy=0;exitX=0.5;exitY=0;exitDx=0;exitDy=0;entryPerimeter=0;fontSize=14;" parent="1" source="0JstrHkOvT4zA7hhjL8A-50" target="0JstrHkOvT4zA7hhjL8A-50" edge="1">
          <mxGeometry width="50" height="50" relative="1" as="geometry">
            <mxPoint x="430" y="300" as="sourcePoint" />
            <mxPoint x="310" y="70" as="targetPoint" />
          </mxGeometry>
        </mxCell>
        <mxCell id="0JstrHkOvT4zA7hhjL8A-41" value="" style="endArrow=none;html=1;rounded=0;entryX=0.5;entryY=1;entryDx=0;entryDy=0;exitX=0.5;exitY=0;exitDx=0;exitDy=0;entryPerimeter=0;fontSize=14;" parent="1" source="0JstrHkOvT4zA7hhjL8A-4" target="0JstrHkOvT4zA7hhjL8A-52" edge="1">
          <mxGeometry width="50" height="50" relative="1" as="geometry">
            <mxPoint x="338" y="330" as="sourcePoint" />
            <mxPoint x="478" y="210" as="targetPoint" />
          </mxGeometry>
        </mxCell>
        <mxCell id="0JstrHkOvT4zA7hhjL8A-50" value="" style="sketch=0;points=[[0.015,0.015,0],[0.985,0.015,0],[0.985,0.985,0],[0.015,0.985,0],[0.25,0,0],[0.5,0,0],[0.75,0,0],[1,0.25,0],[1,0.5,0],[1,0.75,0],[0.75,1,0],[0.5,1,0],[0.25,1,0],[0,0.75,0],[0,0.5,0],[0,0.25,0]];verticalLabelPosition=bottom;html=1;verticalAlign=top;aspect=fixed;align=center;pointerEvents=1;shape=mxgraph.cisco19.rect;prIcon=l2_switch;fillColor=#FAFAFA;strokeColor=#005073;fontSize=14;" parent="1" vertex="1">
          <mxGeometry x="295" y="96.3" width="30" height="30" as="geometry" />
        </mxCell>
        <mxCell id="0JstrHkOvT4zA7hhjL8A-52" value="" style="sketch=0;points=[[0.015,0.015,0],[0.985,0.015,0],[0.985,0.985,0],[0.015,0.985,0],[0.25,0,0],[0.5,0,0],[0.75,0,0],[1,0.25,0],[1,0.5,0],[1,0.75,0],[0.75,1,0],[0.5,1,0],[0.25,1,0],[0,0.75,0],[0,0.5,0],[0,0.25,0]];verticalLabelPosition=bottom;html=1;verticalAlign=top;aspect=fixed;align=center;pointerEvents=1;shape=mxgraph.cisco19.rect;prIcon=l2_switch;fillColor=#FAFAFA;strokeColor=#005073;fontSize=14;" parent="1" vertex="1">
          <mxGeometry x="458" y="66.3" width="30" height="30" as="geometry" />
        </mxCell>
        <mxCell id="g3ic62DsX7ZCbNPFw6_O-1" value="" style="rounded=1;whiteSpace=wrap;html=1;fontSize=14;" vertex="1" parent="1">
          <mxGeometry x="772" y="-20" width="358" height="390" as="geometry" />
        </mxCell>
        <mxCell id="g3ic62DsX7ZCbNPFw6_O-2" value="SD-WAN&lt;div style=&quot;font-size: 14px;&quot;&gt;VCE3&lt;/div&gt;" style="rounded=0;whiteSpace=wrap;html=1;fontSize=14;" vertex="1" parent="1">
          <mxGeometry x="845" y="150" width="60" height="30" as="geometry" />
        </mxCell>
        <mxCell id="g3ic62DsX7ZCbNPFw6_O-5" value="" style="image;points=[];aspect=fixed;html=1;align=center;shadow=0;dashed=0;image=img/lib/allied_telesis/computer_and_terminals/Laptop.svg;fontSize=14;" vertex="1" parent="1">
          <mxGeometry x="1030" y="37.39999999999998" width="42" height="42.599999999999994" as="geometry" />
        </mxCell>
        <mxCell id="g3ic62DsX7ZCbNPFw6_O-6" value="" style="image;points=[];aspect=fixed;html=1;align=center;shadow=0;dashed=0;image=img/lib/allied_telesis/computer_and_terminals/Laptop.svg;fontSize=14;" vertex="1" parent="1">
          <mxGeometry x="1030" y="120" width="42" height="42.599999999999994" as="geometry" />
        </mxCell>
        <mxCell id="g3ic62DsX7ZCbNPFw6_O-7" value="" style="endArrow=none;dashed=1;html=1;dashPattern=1 3;strokeWidth=2;rounded=0;exitX=0.985;exitY=0.015;exitDx=0;exitDy=0;exitPerimeter=0;fontSize=14;" edge="1" parent="1" source="g3ic62DsX7ZCbNPFw6_O-14" target="g3ic62DsX7ZCbNPFw6_O-5">
          <mxGeometry width="50" height="50" relative="1" as="geometry">
            <mxPoint x="880" y="90" as="sourcePoint" />
            <mxPoint x="1030" y="70" as="targetPoint" />
          </mxGeometry>
        </mxCell>
        <mxCell id="g3ic62DsX7ZCbNPFw6_O-8" value="VLAN 23&lt;div style=&quot;font-size: 14px;&quot;&gt;192.168.23.14/24&lt;/div&gt;" style="edgeLabel;html=1;align=center;verticalAlign=middle;resizable=0;points=[];fontSize=14;" vertex="1" connectable="0" parent="g3ic62DsX7ZCbNPFw6_O-7">
          <mxGeometry x="-0.0074" y="-3" relative="1" as="geometry">
            <mxPoint as="offset" />
          </mxGeometry>
        </mxCell>
        <mxCell id="g3ic62DsX7ZCbNPFw6_O-9" value="" style="endArrow=none;dashed=1;html=1;dashPattern=1 3;strokeWidth=2;rounded=0;exitX=0.985;exitY=0.985;exitDx=0;exitDy=0;exitPerimeter=0;fontSize=14;" edge="1" parent="1" source="g3ic62DsX7ZCbNPFw6_O-14" target="g3ic62DsX7ZCbNPFw6_O-6">
          <mxGeometry width="50" height="50" relative="1" as="geometry">
            <mxPoint x="880" y="100" as="sourcePoint" />
            <mxPoint x="1030" y="153" as="targetPoint" />
          </mxGeometry>
        </mxCell>
        <mxCell id="g3ic62DsX7ZCbNPFw6_O-10" value="VLAN 13&lt;div style=&quot;font-size: 14px;&quot;&gt;192.168.13.27/24&lt;/div&gt;" style="edgeLabel;html=1;align=center;verticalAlign=middle;resizable=0;points=[];fontSize=14;" vertex="1" connectable="0" parent="g3ic62DsX7ZCbNPFw6_O-9">
          <mxGeometry x="0.1165" y="-1" relative="1" as="geometry">
            <mxPoint as="offset" />
          </mxGeometry>
        </mxCell>
        <mxCell id="g3ic62DsX7ZCbNPFw6_O-11" value="Site 3" style="rounded=0;whiteSpace=wrap;html=1;fontSize=14;" vertex="1" parent="1">
          <mxGeometry x="900" y="-20" width="120" height="30" as="geometry" />
        </mxCell>
        <mxCell id="g3ic62DsX7ZCbNPFw6_O-13" value="" style="endArrow=none;html=1;rounded=0;entryX=0.5;entryY=1;entryDx=0;entryDy=0;exitX=0.5;exitY=0;exitDx=0;exitDy=0;entryPerimeter=0;fontSize=14;" edge="1" parent="1" source="g3ic62DsX7ZCbNPFw6_O-2" target="g3ic62DsX7ZCbNPFw6_O-14">
          <mxGeometry width="50" height="50" relative="1" as="geometry">
            <mxPoint x="710" y="330" as="sourcePoint" />
            <mxPoint x="849.9999999999998" y="210" as="targetPoint" />
          </mxGeometry>
        </mxCell>
        <mxCell id="g3ic62DsX7ZCbNPFw6_O-14" value="" style="sketch=0;points=[[0.015,0.015,0],[0.985,0.015,0],[0.985,0.985,0],[0.015,0.985,0],[0.25,0,0],[0.5,0,0],[0.75,0,0],[1,0.25,0],[1,0.5,0],[1,0.75,0],[0.75,1,0],[0.5,1,0],[0.25,1,0],[0,0.75,0],[0,0.5,0],[0,0.25,0]];verticalLabelPosition=bottom;html=1;verticalAlign=top;aspect=fixed;align=center;pointerEvents=1;shape=mxgraph.cisco19.rect;prIcon=l2_switch;fillColor=#FAFAFA;strokeColor=#005073;fontSize=14;" vertex="1" parent="1">
          <mxGeometry x="825" y="60.000000000000014" width="30" height="30" as="geometry" />
        </mxCell>
        <mxCell id="g3ic62DsX7ZCbNPFw6_O-19" value="7210&lt;div style=&quot;font-size: 14px;&quot;&gt;SITE1&lt;/div&gt;" style="rounded=0;whiteSpace=wrap;html=1;fontSize=14;" vertex="1" parent="1">
          <mxGeometry x="190" y="320" width="70" height="30" as="geometry" />
        </mxCell>
        <mxCell id="g3ic62DsX7ZCbNPFw6_O-20" value="" style="shape=link;html=1;rounded=0;exitX=0.5;exitY=0;exitDx=0;exitDy=0;entryX=0.5;entryY=1;entryDx=0;entryDy=0;fontSize=14;" edge="1" parent="1" source="g3ic62DsX7ZCbNPFw6_O-19" target="0JstrHkOvT4zA7hhjL8A-3">
          <mxGeometry width="100" relative="1" as="geometry">
            <mxPoint x="240" y="340" as="sourcePoint" />
            <mxPoint x="350" y="640" as="targetPoint" />
          </mxGeometry>
        </mxCell>
        <mxCell id="g3ic62DsX7ZCbNPFw6_O-57" value="&lt;font style=&quot;font-size: 14px;&quot;&gt;SLARAN02&lt;/font&gt;&lt;div style=&quot;font-size: 14px;&quot;&gt;&lt;font style=&quot;font-size: 14px;&quot;&gt;184.177.81.196/31&lt;/font&gt;&lt;/div&gt;" style="edgeLabel;html=1;align=center;verticalAlign=middle;resizable=0;points=[];fontSize=14;" vertex="1" connectable="0" parent="g3ic62DsX7ZCbNPFw6_O-20">
          <mxGeometry x="-0.1129" y="-1" relative="1" as="geometry">
            <mxPoint x="-22" y="26" as="offset" />
          </mxGeometry>
        </mxCell>
        <mxCell id="g3ic62DsX7ZCbNPFw6_O-64" value="&lt;font style=&quot;font-size: 14px;&quot;&gt;Allow 192.168.11.0/24 -&amp;gt; any&lt;/font&gt;&lt;div style=&quot;font-size: 14px;&quot;&gt;&lt;font style=&quot;font-size: 14px;&quot;&gt;Allow 192.168.21.0/24 -&amp;gt; any&lt;br style=&quot;font-size: 14px;&quot;&gt;&lt;/font&gt;&lt;/div&gt;" style="edgeLabel;html=1;align=center;verticalAlign=middle;resizable=0;points=[];fontSize=14;" vertex="1" connectable="0" parent="g3ic62DsX7ZCbNPFw6_O-20">
          <mxGeometry x="0.3522" y="1" relative="1" as="geometry">
            <mxPoint x="8" y="-13" as="offset" />
          </mxGeometry>
        </mxCell>
        <mxCell id="g3ic62DsX7ZCbNPFw6_O-21" value="7210&lt;div style=&quot;font-size: 14px;&quot;&gt;SITE2&lt;/div&gt;" style="rounded=0;whiteSpace=wrap;html=1;fontSize=14;" vertex="1" parent="1">
          <mxGeometry x="458" y="310" width="70" height="30" as="geometry" />
        </mxCell>
        <mxCell id="g3ic62DsX7ZCbNPFw6_O-22" value="" style="shape=link;html=1;rounded=0;entryX=0.5;entryY=1;entryDx=0;entryDy=0;fontSize=14;" edge="1" parent="1" source="g3ic62DsX7ZCbNPFw6_O-21" target="0JstrHkOvT4zA7hhjL8A-4">
          <mxGeometry width="100" relative="1" as="geometry">
            <mxPoint x="493" y="310" as="sourcePoint" />
            <mxPoint x="640" y="640" as="targetPoint" />
          </mxGeometry>
        </mxCell>
        <mxCell id="g3ic62DsX7ZCbNPFw6_O-58" value="&lt;font style=&quot;font-size: 14px;&quot;&gt;SLARBN01&lt;/font&gt;&lt;div style=&quot;font-size: 14px;&quot;&gt;&lt;font style=&quot;font-size: 14px;&quot;&gt;184.178.60.72/31&lt;/font&gt;&lt;/div&gt;" style="edgeLabel;html=1;align=center;verticalAlign=middle;resizable=0;points=[];fontSize=14;" vertex="1" connectable="0" parent="g3ic62DsX7ZCbNPFw6_O-22">
          <mxGeometry x="0.0091" y="1" relative="1" as="geometry">
            <mxPoint y="41" as="offset" />
          </mxGeometry>
        </mxCell>
        <mxCell id="g3ic62DsX7ZCbNPFw6_O-65" value="&lt;font style=&quot;font-size: 14px;&quot;&gt;Allow 192.168.12.0/24 -&amp;gt; any&lt;/font&gt;&lt;div style=&quot;font-size: 14px;&quot;&gt;&lt;font style=&quot;font-size: 14px;&quot;&gt;Allow 192.168.22.0/24 -&amp;gt; any&lt;/font&gt;&lt;/div&gt;" style="edgeLabel;html=1;align=center;verticalAlign=middle;resizable=0;points=[];fontSize=14;" vertex="1" connectable="0" parent="g3ic62DsX7ZCbNPFw6_O-22">
          <mxGeometry x="0.4332" y="2" relative="1" as="geometry">
            <mxPoint as="offset" />
          </mxGeometry>
        </mxCell>
        <mxCell id="g3ic62DsX7ZCbNPFw6_O-68" value="Velo: GE4" style="edgeLabel;html=1;align=center;verticalAlign=middle;resizable=0;points=[];fontSize=14;" vertex="1" connectable="0" parent="g3ic62DsX7ZCbNPFw6_O-22">
          <mxGeometry x="-0.0256" y="-2" relative="1" as="geometry">
            <mxPoint x="5" y="13" as="offset" />
          </mxGeometry>
        </mxCell>
        <mxCell id="g3ic62DsX7ZCbNPFw6_O-23" value="7210&lt;div style=&quot;font-size: 14px;&quot;&gt;SITE3&lt;/div&gt;" style="rounded=0;whiteSpace=wrap;html=1;fontSize=14;" vertex="1" parent="1">
          <mxGeometry x="835" y="310" width="70" height="30" as="geometry" />
        </mxCell>
        <mxCell id="g3ic62DsX7ZCbNPFw6_O-24" value="" style="shape=link;html=1;rounded=0;exitX=0.75;exitY=0;exitDx=0;exitDy=0;entryX=0.5;entryY=1;entryDx=0;entryDy=0;fontSize=14;" edge="1" parent="1" source="g3ic62DsX7ZCbNPFw6_O-23" target="g3ic62DsX7ZCbNPFw6_O-2">
          <mxGeometry width="100" relative="1" as="geometry">
            <mxPoint x="503" y="350" as="sourcePoint" />
            <mxPoint x="640" y="640" as="targetPoint" />
          </mxGeometry>
        </mxCell>
        <mxCell id="g3ic62DsX7ZCbNPFw6_O-59" value="&lt;font style=&quot;font-size: 14px;&quot;&gt;SLARBN02&lt;/font&gt;&lt;div style=&quot;font-size: 14px;&quot;&gt;&lt;font style=&quot;font-size: 14px;&quot;&gt;184.178.60.70/31&lt;/font&gt;&lt;/div&gt;" style="edgeLabel;html=1;align=center;verticalAlign=middle;resizable=0;points=[];fontSize=14;" vertex="1" connectable="0" parent="g3ic62DsX7ZCbNPFw6_O-24">
          <mxGeometry x="-0.0093" y="-4" relative="1" as="geometry">
            <mxPoint x="12" y="41" as="offset" />
          </mxGeometry>
        </mxCell>
        <mxCell id="g3ic62DsX7ZCbNPFw6_O-66" value="&lt;font style=&quot;font-size: 14px;&quot;&gt;Allow 192.168.13.0/24 -&amp;gt; any&lt;/font&gt;&lt;div style=&quot;font-size: 14px;&quot;&gt;&lt;font style=&quot;font-size: 14px;&quot;&gt;Allow 192.168.23.0/24 -&amp;gt; any&lt;/font&gt;&lt;/div&gt;" style="edgeLabel;html=1;align=center;verticalAlign=middle;resizable=0;points=[];fontSize=14;" vertex="1" connectable="0" parent="g3ic62DsX7ZCbNPFw6_O-24">
          <mxGeometry x="0.4296" relative="1" as="geometry">
            <mxPoint y="-1" as="offset" />
          </mxGeometry>
        </mxCell>
        <mxCell id="g3ic62DsX7ZCbNPFw6_O-26" value="HUB1" style="rounded=0;whiteSpace=wrap;html=1;fontSize=14;" vertex="1" parent="1">
          <mxGeometry x="190" y="480" width="120" height="30" as="geometry" />
        </mxCell>
        <mxCell id="g3ic62DsX7ZCbNPFw6_O-30" value="7210&lt;div style=&quot;font-size: 14px;&quot;&gt;HUB1&lt;/div&gt;" style="rounded=0;whiteSpace=wrap;html=1;fontSize=14;" vertex="1" parent="1">
          <mxGeometry x="388" y="510" width="70" height="30" as="geometry" />
        </mxCell>
        <mxCell id="g3ic62DsX7ZCbNPFw6_O-31" value="7210&lt;div style=&quot;font-size: 14px;&quot;&gt;HUB2&lt;/div&gt;" style="rounded=0;whiteSpace=wrap;html=1;fontSize=14;" vertex="1" parent="1">
          <mxGeometry x="670" y="510" width="70" height="30" as="geometry" />
        </mxCell>
        <mxCell id="g3ic62DsX7ZCbNPFw6_O-32" value="Customer FW2" style="rounded=0;whiteSpace=wrap;html=1;fontSize=14;" vertex="1" parent="1">
          <mxGeometry x="745" y="770" width="70" height="30" as="geometry" />
        </mxCell>
        <mxCell id="g3ic62DsX7ZCbNPFw6_O-34" value="Customer FW2" style="rounded=0;whiteSpace=wrap;html=1;fontSize=14;" vertex="1" parent="1">
          <mxGeometry x="350" y="790" width="70" height="30" as="geometry" />
        </mxCell>
        <mxCell id="g3ic62DsX7ZCbNPFw6_O-36" value="" style="endArrow=none;html=1;rounded=0;entryX=0.75;entryY=1;entryDx=0;entryDy=0;exitX=0.25;exitY=0;exitDx=0;exitDy=0;fontSize=14;" edge="1" parent="1" source="g3ic62DsX7ZCbNPFw6_O-40" target="g3ic62DsX7ZCbNPFw6_O-31">
          <mxGeometry width="50" height="50" relative="1" as="geometry">
            <mxPoint x="618" y="650" as="sourcePoint" />
            <mxPoint x="668" y="600" as="targetPoint" />
          </mxGeometry>
        </mxCell>
        <mxCell id="g3ic62DsX7ZCbNPFw6_O-39" value="VeloHA1" style="rounded=0;whiteSpace=wrap;html=1;fontSize=14;" vertex="1" parent="1">
          <mxGeometry x="350" y="640" width="65" height="30" as="geometry" />
        </mxCell>
        <mxCell id="g3ic62DsX7ZCbNPFw6_O-40" value="VeloHA2" style="rounded=0;whiteSpace=wrap;html=1;fontSize=14;" vertex="1" parent="1">
          <mxGeometry x="750" y="620" width="65" height="30" as="geometry" />
        </mxCell>
        <mxCell id="g3ic62DsX7ZCbNPFw6_O-41" value="" style="endArrow=none;html=1;rounded=0;entryX=0.5;entryY=0;entryDx=0;entryDy=0;exitX=0.5;exitY=1;exitDx=0;exitDy=0;fontSize=14;" edge="1" parent="1" source="g3ic62DsX7ZCbNPFw6_O-40" target="g3ic62DsX7ZCbNPFw6_O-32">
          <mxGeometry width="50" height="50" relative="1" as="geometry">
            <mxPoint x="838" y="725" as="sourcePoint" />
            <mxPoint x="770" y="710" as="targetPoint" />
          </mxGeometry>
        </mxCell>
        <mxCell id="g3ic62DsX7ZCbNPFw6_O-42" value="" style="endArrow=none;html=1;rounded=0;entryX=0.5;entryY=1;entryDx=0;entryDy=0;exitX=0.5;exitY=0;exitDx=0;exitDy=0;fontSize=14;" edge="1" parent="1" source="g3ic62DsX7ZCbNPFw6_O-39" target="g3ic62DsX7ZCbNPFw6_O-30">
          <mxGeometry width="50" height="50" relative="1" as="geometry">
            <mxPoint x="307" y="690" as="sourcePoint" />
            <mxPoint x="382" y="640" as="targetPoint" />
          </mxGeometry>
        </mxCell>
        <mxCell id="g3ic62DsX7ZCbNPFw6_O-43" value="" style="endArrow=none;html=1;rounded=0;entryX=0.5;entryY=0;entryDx=0;entryDy=0;fontSize=14;exitX=0.5;exitY=1;exitDx=0;exitDy=0;" edge="1" parent="1" source="g3ic62DsX7ZCbNPFw6_O-39" target="g3ic62DsX7ZCbNPFw6_O-34">
          <mxGeometry width="50" height="50" relative="1" as="geometry">
            <mxPoint x="385" y="680" as="sourcePoint" />
            <mxPoint x="307" y="720" as="targetPoint" />
          </mxGeometry>
        </mxCell>
        <mxCell id="g3ic62DsX7ZCbNPFw6_O-45" value="&lt;font style=&quot;font-size: 14px;&quot;&gt;Public Internet&lt;/font&gt;" style="outlineConnect=0;dashed=0;verticalLabelPosition=bottom;verticalAlign=top;align=center;html=1;shape=mxgraph.aws3.internet_2;fillColor=#D2D3D3;gradientColor=none;fontSize=14;" vertex="1" parent="1">
          <mxGeometry x="502" y="900" width="215" height="104" as="geometry" />
        </mxCell>
        <mxCell id="g3ic62DsX7ZCbNPFw6_O-52" value="" style="endArrow=none;html=1;rounded=0;entryX=0.75;entryY=1;entryDx=0;entryDy=0;exitX=0.17;exitY=0.2;exitDx=0;exitDy=0;exitPerimeter=0;strokeWidth=4;shadow=1;fontSize=14;" edge="1" parent="1" source="g3ic62DsX7ZCbNPFw6_O-45" target="g3ic62DsX7ZCbNPFw6_O-34">
          <mxGeometry width="50" height="50" relative="1" as="geometry">
            <mxPoint x="319" y="810" as="sourcePoint" />
            <mxPoint x="375" y="850" as="targetPoint" />
          </mxGeometry>
        </mxCell>
        <mxCell id="g3ic62DsX7ZCbNPFw6_O-53" value="" style="endArrow=none;html=1;rounded=0;entryX=0.77;entryY=0.25;entryDx=0;entryDy=0;exitX=0.5;exitY=1;exitDx=0;exitDy=0;strokeWidth=4;shadow=1;entryPerimeter=0;fontSize=14;" edge="1" parent="1" source="g3ic62DsX7ZCbNPFw6_O-32" target="g3ic62DsX7ZCbNPFw6_O-45">
          <mxGeometry width="50" height="50" relative="1" as="geometry">
            <mxPoint x="469" y="1001" as="sourcePoint" />
            <mxPoint x="393" y="880" as="targetPoint" />
          </mxGeometry>
        </mxCell>
        <mxCell id="g3ic62DsX7ZCbNPFw6_O-70" value="Velo: GE4" style="edgeLabel;html=1;align=center;verticalAlign=middle;resizable=0;points=[];fontSize=14;" vertex="1" connectable="0" parent="1">
          <mxGeometry x="260" y="259.99666666666695" as="geometry" />
        </mxCell>
        <mxCell id="g3ic62DsX7ZCbNPFw6_O-71" value="Velo: GE4" style="edgeLabel;html=1;align=center;verticalAlign=middle;resizable=0;points=[];fontSize=14;" vertex="1" connectable="0" parent="1">
          <mxGeometry x="540" y="269.99666666666695" as="geometry">
            <mxPoint x="345" y="-18" as="offset" />
          </mxGeometry>
        </mxCell>
        <mxCell id="g3ic62DsX7ZCbNPFw6_O-72" value="" style="shape=link;html=1;rounded=0;exitX=1;exitY=1;exitDx=0;exitDy=0;entryX=0;entryY=0.25;entryDx=0;entryDy=0;fontSize=14;" edge="1" parent="1" source="g3ic62DsX7ZCbNPFw6_O-19" target="g3ic62DsX7ZCbNPFw6_O-63">
          <mxGeometry width="100" relative="1" as="geometry">
            <mxPoint x="520" y="370" as="sourcePoint" />
            <mxPoint x="620" y="370" as="targetPoint" />
          </mxGeometry>
        </mxCell>
        <mxCell id="g3ic62DsX7ZCbNPFw6_O-73" value="" style="shape=link;html=1;rounded=0;exitX=0.75;exitY=1;exitDx=0;exitDy=0;entryX=0.25;entryY=0;entryDx=0;entryDy=0;fontSize=14;" edge="1" parent="1" source="g3ic62DsX7ZCbNPFw6_O-21" target="g3ic62DsX7ZCbNPFw6_O-63">
          <mxGeometry width="100" relative="1" as="geometry">
            <mxPoint x="270" y="360" as="sourcePoint" />
            <mxPoint x="518" y="417" as="targetPoint" />
          </mxGeometry>
        </mxCell>
        <mxCell id="g3ic62DsX7ZCbNPFw6_O-74" value="" style="shape=link;html=1;rounded=0;exitX=0.25;exitY=1;exitDx=0;exitDy=0;entryX=1;entryY=0.25;entryDx=0;entryDy=0;fontSize=14;" edge="1" parent="1" source="g3ic62DsX7ZCbNPFw6_O-23" target="g3ic62DsX7ZCbNPFw6_O-63">
          <mxGeometry width="100" relative="1" as="geometry">
            <mxPoint x="521" y="350" as="sourcePoint" />
            <mxPoint x="554" y="395" as="targetPoint" />
          </mxGeometry>
        </mxCell>
        <mxCell id="g3ic62DsX7ZCbNPFw6_O-75" value="" style="shape=link;html=1;rounded=0;exitX=0;exitY=0.75;exitDx=0;exitDy=0;entryX=0.5;entryY=0;entryDx=0;entryDy=0;fontSize=14;" edge="1" parent="1" source="g3ic62DsX7ZCbNPFw6_O-63" target="g3ic62DsX7ZCbNPFw6_O-30">
          <mxGeometry width="100" relative="1" as="geometry">
            <mxPoint x="531" y="360" as="sourcePoint" />
            <mxPoint x="564" y="405" as="targetPoint" />
          </mxGeometry>
        </mxCell>
        <mxCell id="g3ic62DsX7ZCbNPFw6_O-76" value="" style="shape=link;html=1;rounded=0;exitX=0.25;exitY=0;exitDx=0;exitDy=0;entryX=1;entryY=1;entryDx=0;entryDy=0;fontSize=14;" edge="1" parent="1" source="g3ic62DsX7ZCbNPFw6_O-31" target="g3ic62DsX7ZCbNPFw6_O-63">
          <mxGeometry width="100" relative="1" as="geometry">
            <mxPoint x="541" y="370" as="sourcePoint" />
            <mxPoint x="574" y="415" as="targetPoint" />
          </mxGeometry>
        </mxCell>
        <mxCell id="g3ic62DsX7ZCbNPFw6_O-79" value="&lt;font style=&quot;font-size: 20px;&quot;&gt;ELAN&lt;/font&gt;" style="text;html=1;align=center;verticalAlign=middle;whiteSpace=wrap;rounded=0;fontSize=20;" vertex="1" parent="1">
          <mxGeometry x="555.63" y="425" width="60" height="30" as="geometry" />
        </mxCell>
      </root>
    </mxGraphModel>
  </diagram>
</mxfile>
